<svg width="662" height="405" viewBox="0 0 662 405" fill="none" xmlns="http://www.w3.org/2000/svg">
<g clip-path="url(#clip0_230_130)">
<path d="M315.85 367.44L314.75 371.62C342.64 383.06 373.35 393.43 408.57 399.22C410.37 388.22 409.45 378.3 403.04 368.57L315.85 367.44Z" fill="#1B9FF0"/>
<path d="M634.45 365.22H214.2V311.22H634.45C641.611 311.22 648.479 314.065 653.542 319.128C658.606 324.192 661.45 331.059 661.45 338.22C661.45 345.381 658.606 352.248 653.542 357.312C648.479 362.375 641.611 365.22 634.45 365.22Z" fill="#FDC347"/>
<path d="M366.761 318.46C371.807 318.457 376.648 316.458 380.225 312.898C383.802 309.338 385.824 304.507 385.851 299.46H385.911V280H460.091V299.39C460.117 304.437 462.14 309.268 465.717 312.828C469.294 316.388 474.134 318.387 479.181 318.39L366.761 318.46Z" fill="#9A9FA1"/>
<path d="M365.35 321.36H480.83C481.443 321.36 481.94 320.863 481.94 320.25V319.55C481.94 318.937 481.443 318.44 480.83 318.44H365.35C364.737 318.44 364.24 318.937 364.24 319.55V320.25C364.24 320.863 364.737 321.36 365.35 321.36Z" fill="#74787A"/>
<path d="M306.7 281.77L545.42 281.77C553.716 281.77 560.44 275.045 560.44 266.75V124.32C560.44 116.025 553.716 109.3 545.42 109.3L306.7 109.3C298.405 109.3 291.68 116.025 291.68 124.32V266.75C291.68 275.045 298.405 281.77 306.7 281.77Z" fill="#D1D2D4"/>
<path opacity="0.2" d="M546.39 109.3H416.73L459.33 281.77H546.39C548.257 281.749 550.1 281.361 551.816 280.627C553.532 279.894 555.087 278.83 556.392 277.495C557.697 276.161 558.726 274.582 559.42 272.85C560.115 271.118 560.462 269.266 560.44 267.4V123.67C560.48 119.902 559.023 116.272 556.389 113.578C553.755 110.883 550.158 109.345 546.39 109.3V109.3Z" fill="white"/>
<path d="M459.93 292.05H385.94V281.87H459.93V292.05Z" fill="#74787A"/>
<path d="M549.54 266.94H302.58V120.56H549.54V266.94Z" fill="#87939F"/>
<path d="M358.421 129.34H503.851V267.14H358.421V129.34Z" fill="white"/>
<path opacity="0.5" d="M367.561 152.48H421.451V164.73H367.561V152.48Z" fill="#D5D9DC"/>
<path d="M372.08 148.6L370 145.36V148.6H369.12V144H370.22L372.12 147V144H373V148.57L372.08 148.6ZM373.78 147.73C373.779 147.602 373.807 147.476 373.86 147.36C373.909 147.252 373.977 147.154 374.06 147.07C374.148 146.989 374.25 146.925 374.36 146.88C374.478 146.827 374.602 146.79 374.73 146.77L375.51 146.66C375.58 146.652 375.646 146.624 375.7 146.58C375.733 146.537 375.75 146.484 375.75 146.43C375.749 146.375 375.737 146.322 375.714 146.272C375.692 146.222 375.66 146.177 375.62 146.14C375.502 146.052 375.357 146.009 375.21 146.02C375.132 146.015 375.054 146.025 374.98 146.051C374.906 146.077 374.838 146.117 374.78 146.17C374.682 146.27 374.622 146.401 374.61 146.54L373.85 146.37C373.875 146.238 373.926 146.112 374 146C374.07 145.875 374.161 145.763 374.27 145.67C374.392 145.565 374.531 145.481 374.68 145.42C374.863 145.356 375.056 145.326 375.25 145.33C375.465 145.323 375.679 145.356 375.88 145.43C376.038 145.489 376.184 145.578 376.31 145.69C376.419 145.8 376.501 145.933 376.55 146.08C376.603 146.228 376.63 146.383 376.63 146.54V148.09C376.625 148.183 376.625 148.277 376.63 148.37V148.6H375.85C375.844 148.54 375.844 148.48 375.85 148.42C375.846 148.353 375.846 148.287 375.85 148.22C375.756 148.349 375.637 148.457 375.5 148.54C375.322 148.646 375.117 148.698 374.91 148.69C374.757 148.69 374.604 148.663 374.46 148.61C374.332 148.557 374.214 148.483 374.11 148.39C374.022 148.304 373.951 148.202 373.9 148.09C373.834 147.98 373.793 147.857 373.78 147.73V147.73ZM375.05 148.05C375.136 148.065 375.224 148.065 375.31 148.05C375.396 148.03 375.475 147.989 375.54 147.93C375.606 147.865 375.657 147.786 375.69 147.7C375.735 147.589 375.755 147.47 375.75 147.35V147.21L375.03 147.32C374.929 147.337 374.833 147.378 374.75 147.44C374.713 147.476 374.683 147.52 374.664 147.568C374.645 147.616 374.637 147.668 374.64 147.72C374.638 147.816 374.674 147.91 374.74 147.98C374.831 148.042 374.942 148.067 375.05 148.05V148.05ZM377.45 148.6V145.43H378.27V145.81C378.311 145.735 378.366 145.667 378.43 145.61C378.5 145.551 378.578 145.501 378.66 145.46C378.746 145.42 378.837 145.389 378.93 145.37H379.19C379.391 145.364 379.591 145.409 379.77 145.5C379.931 145.59 380.058 145.73 380.13 145.9C380.235 145.724 380.387 145.582 380.57 145.49C380.749 145.408 380.944 145.367 381.14 145.37C381.282 145.37 381.424 145.39 381.56 145.43C381.697 145.478 381.823 145.552 381.93 145.65C382.041 145.758 382.13 145.887 382.19 146.03C382.254 146.203 382.285 146.386 382.28 146.57V148.63H381.45V146.75C381.459 146.596 381.413 146.443 381.32 146.32C381.268 146.258 381.201 146.211 381.126 146.181C381.051 146.151 380.97 146.141 380.89 146.15C380.81 146.146 380.729 146.16 380.655 146.191C380.58 146.222 380.514 146.27 380.46 146.33C380.359 146.454 380.306 146.61 380.31 146.77V148.63H379.46V146.75C379.466 146.595 379.417 146.442 379.32 146.32C379.269 146.26 379.204 146.213 379.131 146.184C379.058 146.154 378.979 146.142 378.9 146.15C378.818 146.144 378.736 146.158 378.659 146.189C378.583 146.22 378.515 146.268 378.46 146.33C378.355 146.452 378.298 146.609 378.3 146.77V148.63L377.45 148.6ZM386 147.69C385.961 147.829 385.9 147.96 385.82 148.08C385.735 148.203 385.631 148.311 385.51 148.4C385.383 148.493 385.241 148.565 385.09 148.61C384.92 148.668 384.74 148.695 384.56 148.69C384.349 148.69 384.139 148.653 383.94 148.58C383.739 148.508 383.555 148.393 383.403 148.243C383.251 148.093 383.134 147.911 383.06 147.71C382.968 147.485 382.924 147.243 382.93 147C382.927 146.765 382.968 146.531 383.05 146.31C383.131 146.112 383.25 145.932 383.4 145.78C383.544 145.639 383.714 145.527 383.9 145.45C384.083 145.371 384.281 145.33 384.48 145.33C384.693 145.318 384.907 145.351 385.107 145.427C385.307 145.503 385.488 145.62 385.64 145.77C385.917 146.117 386.046 146.559 386 147C386.005 147.057 386.005 147.113 386 147.17V147.27H383.73C383.732 147.367 383.756 147.463 383.8 147.55C383.846 147.637 383.907 147.714 383.98 147.78C384.047 147.848 384.129 147.899 384.22 147.93C384.319 147.97 384.424 147.991 384.53 147.99C384.698 147.999 384.864 147.949 385 147.85C385.113 147.762 385.2 147.644 385.25 147.51L386 147.69ZM385.2 146.69C385.21 146.614 385.21 146.536 385.2 146.46C385.17 146.386 385.126 146.318 385.07 146.26C385.006 146.2 384.932 146.152 384.85 146.12C384.751 146.082 384.646 146.065 384.54 146.07C384.438 146.07 384.337 146.086 384.24 146.12C384.158 146.156 384.083 146.207 384.02 146.27C383.965 146.33 383.917 146.397 383.88 146.47C383.849 146.539 383.832 146.614 383.83 146.69H385.2Z" fill="#2E3235"/>
<path opacity="0.5" d="M431.951 152.48H485.841V164.73H431.951V152.48ZM367.561 152.48H421.451V154.31H367.561V152.48Z" fill="#D5D9DC"/>
<path opacity="0.5" d="M431.951 152.48H485.841V154.31H431.951V152.48ZM388.761 196.36H417.321V200.47H388.761V196.36Z" fill="#D5D9DC"/>
<path opacity="0.5" d="M384.05 201.22C385.668 201.22 386.98 199.962 386.98 198.41C386.98 196.858 385.668 195.6 384.05 195.6C382.432 195.6 381.12 196.858 381.12 198.41C381.12 199.962 382.432 201.22 384.05 201.22Z" fill="#D5D9DC"/>
<path opacity="0.5" d="M432.75 196.36H461.31V200.47H432.75V196.36ZM431.95 167.47H458.89V171.58H431.95V167.47ZM377.66 167.47H404.6V171.58H377.66V167.47Z" fill="#D5D9DC"/>
<path d="M378.591 187.02H439.661V191.13H378.591V187.02ZM384.051 141.66H412.941V145.77H384.051V141.66Z" fill="#87939F"/>
<path opacity="0.5" d="M427.191 201.22C428.809 201.22 430.121 199.962 430.121 198.41C430.121 196.858 428.809 195.6 427.191 195.6C425.573 195.6 424.261 196.858 424.261 198.41C424.261 199.962 425.573 201.22 427.191 201.22Z" fill="#D5D9DC"/>
<path opacity="0.5" d="M388.761 206.24H417.321V210.35H388.761V206.24Z" fill="#D5D9DC"/>
<path opacity="0.5" d="M384.05 211.1C385.668 211.1 386.98 209.842 386.98 208.29C386.98 206.738 385.668 205.48 384.05 205.48C382.432 205.48 381.12 206.738 381.12 208.29C381.12 209.842 382.432 211.1 384.05 211.1Z" fill="#D5D9DC"/>
<path opacity="0.5" d="M432.75 206.24H461.31V210.35H432.75V206.24Z" fill="#D5D9DC"/>
<path opacity="0.5" d="M427.191 211.1C428.809 211.1 430.121 209.842 430.121 208.29C430.121 206.738 428.809 205.48 427.191 205.48C425.573 205.48 424.261 206.738 424.261 208.29C424.261 209.842 425.573 211.1 427.191 211.1Z" fill="#D5D9DC"/>
<path opacity="0.5" d="M388.761 216.26H417.321V220.37H388.761V216.26Z" fill="#D5D9DC"/>
<path opacity="0.5" d="M384.05 221.12C385.668 221.12 386.98 219.862 386.98 218.31C386.98 216.758 385.668 215.5 384.05 215.5C382.432 215.5 381.12 216.758 381.12 218.31C381.12 219.862 382.432 221.12 384.05 221.12Z" fill="#D5D9DC"/>
<path opacity="0.5" d="M432.75 216.26H461.31V220.37H432.75V216.26Z" fill="#D5D9DC"/>
<path opacity="0.5" d="M427.191 221.12C428.809 221.12 430.121 219.862 430.121 218.31C430.121 216.758 428.809 215.5 427.191 215.5C425.573 215.5 424.261 216.758 424.261 218.31C424.261 219.862 425.573 221.12 427.191 221.12Z" fill="#D5D9DC"/>
<path d="M358.171 178.89H503.801V229.66H358.171V178.89Z" stroke="#2AA3EF" stroke-width="2.576" stroke-miterlimit="10"/>
<path d="M513.631 210.1C516.48 210.1 518.791 207.79 518.791 204.94C518.791 202.09 516.48 199.78 513.631 199.78C510.781 199.78 508.471 202.09 508.471 204.94C508.471 207.79 510.781 210.1 513.631 210.1Z" fill="#41657C"/>
<path d="M513.63 202.55C513.157 202.548 512.694 202.687 512.3 202.948C511.906 203.209 511.598 203.582 511.415 204.018C511.233 204.455 511.184 204.936 511.275 205.4C511.366 205.864 511.593 206.291 511.927 206.626C512.261 206.962 512.687 207.19 513.15 207.283C513.614 207.376 514.095 207.33 514.533 207.149C514.97 206.968 515.344 206.662 515.607 206.269C515.87 205.876 516.01 205.413 516.01 204.94C516.01 204.308 515.76 203.701 515.314 203.254C514.868 202.806 514.263 202.553 513.63 202.55V202.55ZM513.63 205.55C513.555 205.551 513.48 205.538 513.409 205.51C513.339 205.481 513.275 205.44 513.221 205.387C513.167 205.334 513.124 205.27 513.095 205.2C513.065 205.131 513.05 205.056 513.05 204.98C513.05 204.826 513.112 204.679 513.22 204.57C513.329 204.461 513.477 204.4 513.63 204.4C513.784 204.4 513.932 204.461 514.041 204.57C514.149 204.679 514.21 204.826 514.21 204.98C514.2 205.126 514.134 205.262 514.026 205.361C513.918 205.46 513.777 205.513 513.63 205.51V205.55Z" fill="white"/>
<path d="M513.631 198.51C516.48 198.51 518.791 196.2 518.791 193.35C518.791 190.5 516.48 188.19 513.631 188.19C510.781 188.19 508.471 190.5 508.471 193.35C508.471 196.2 510.781 198.51 513.631 198.51Z" fill="#41657C"/>
<path d="M513.204 191.752C512.84 191.422 512.277 191.45 511.947 191.815C511.617 192.179 511.645 192.742 512.009 193.072L514.041 194.911C514.405 195.241 514.968 195.212 515.298 194.848C515.628 194.484 515.6 193.921 515.235 193.591L513.204 191.752Z" fill="white"/>
<path d="M513.631 221.68C516.48 221.68 518.791 219.37 518.791 216.52C518.791 213.67 516.48 211.36 513.631 211.36C510.781 211.36 508.471 213.67 508.471 216.52C508.471 219.37 510.781 221.68 513.631 221.68Z" fill="#DC2C2E"/>
<path d="M515.03 215.21H512.22C512.16 215.21 512.11 215.259 512.11 215.32V218.76C512.11 218.821 512.16 218.87 512.22 218.87H515.03C515.091 218.87 515.14 218.821 515.14 218.76V215.32C515.14 215.259 515.091 215.21 515.03 215.21Z" fill="white"/>
<path d="M514.38 214.17H512.88C512.677 214.173 512.483 214.255 512.339 214.398C512.195 214.542 512.113 214.737 512.11 214.94H515.11C515.111 214.743 515.035 214.552 514.899 214.409C514.763 214.266 514.578 214.18 514.38 214.17Z" fill="white"/>
<path d="M302.72 120.49H549.39V129.16H302.72V120.49ZM478.69 352.68H291C290.499 352.674 290.01 352.526 289.589 352.253C289.169 351.979 288.834 351.593 288.625 351.137C288.416 350.682 288.34 350.176 288.406 349.679C288.473 349.182 288.678 348.715 289 348.33L301.1 333.77L518.8 334.04C506.06 340.83 489.14 352.68 478.69 352.68V352.68Z" fill="#FCA128"/>
<path d="M288.001 348.57H473.621C474.372 348.571 475.101 348.309 475.681 347.83L489.281 327.63V325.32C489.276 325.151 489.236 324.985 489.165 324.832C489.093 324.68 488.991 324.543 488.864 324.431C488.738 324.32 488.589 324.235 488.429 324.184C488.268 324.132 488.099 324.113 487.931 324.13L286.271 345V346.89C286.272 347.115 286.318 347.336 286.406 347.543C286.494 347.75 286.622 347.936 286.783 348.093C286.944 348.249 287.135 348.372 287.344 348.454C287.553 348.536 287.776 348.575 288.001 348.57V348.57Z" fill="#D1D2D4"/>
<path d="M286.29 345.08H474.79L488.64 324.91C488.71 324.852 488.761 324.775 488.785 324.687C488.809 324.6 488.806 324.507 488.775 324.421C488.744 324.336 488.688 324.262 488.614 324.21C488.539 324.158 488.451 324.13 488.36 324.13H305.5L286.29 345.08Z" fill="#E1E1E1"/>
<path d="M523.91 346.52C530.775 346.52 536.34 343.592 536.34 339.98C536.34 336.368 530.775 333.44 523.91 333.44C517.046 333.44 511.48 336.368 511.48 339.98C511.48 343.592 517.046 346.52 523.91 346.52Z" fill="#E1E1E1"/>
<path d="M523.911 346.53C517.041 346.53 511.471 343.6 511.471 339.98C511.456 339.794 511.456 339.606 511.471 339.42C510.675 340.188 510.209 341.235 510.171 342.34C510.171 345.95 515.731 348.88 522.601 348.88C529.111 348.88 534.441 346.25 534.991 342.88C533.001 345.05 528.781 346.53 523.911 346.53V346.53Z" fill="#FCA128"/>
<path d="M617.521 346.15C626.871 346.15 634.451 344.417 634.451 342.28C634.451 340.143 626.871 338.41 617.521 338.41C608.171 338.41 600.591 340.143 600.591 342.28C600.591 344.417 608.171 346.15 617.521 346.15Z" fill="#FCA128"/>
<path d="M627.54 342.45C617.15 344.45 608.54 344.31 601.36 342.45L597 292.7H631.91L627.54 342.45Z" fill="#D1D2D4"/>
<path d="M606.87 343.36L601.271 342.3L595.98 297.72H602.401L606.87 343.36Z" fill="white"/>
<path d="M633.81 293H632.38L631.09 286.88H597L595.65 293H594.26L592.65 297.77C606.796 300.171 621.245 300.171 635.39 297.77L633.81 293Z" fill="#87939F"/>
<path d="M614.011 288.95C623.444 288.95 631.091 287.947 631.091 286.71C631.091 285.473 623.444 284.47 614.011 284.47C604.578 284.47 596.931 285.473 596.931 286.71C596.931 287.947 604.578 288.95 614.011 288.95Z" fill="#41657C"/>
<path d="M628.63 328.27L630 312.7H598.32L599.7 328.27C609.306 329.48 619.025 329.48 628.63 328.27V328.27Z" fill="#87939F"/>
<path d="M603.87 312.7H597.771L599.651 328.24L605.54 328.84L603.87 312.7V312.7Z" fill="#D1D2D4"/>
<path d="M67.3604 65.54H227.5V104.71H67.3604V65.54Z" fill="#3E4652"/>
<path d="M63.4404 61.26H227.49V365.6H63.4404V61.26Z" fill="#545F6E"/>
<path d="M63.4404 61.98H227.49V108.28H63.4404V61.98Z" fill="#37414F"/>
<path d="M85.71 89.7501H84V77.5801H91.4V79.1401H85.71V83.0601H90.89V84.6401H85.71V89.7501ZM93.22 82.4801C94.0281 81.6849 95.1163 81.2393 96.25 81.2393C97.3837 81.2393 98.4719 81.6849 99.28 82.4801C100.043 83.3501 100.464 84.4679 100.464 85.6251C100.464 86.7823 100.043 87.9 99.28 88.7701C98.4673 89.5641 97.3762 90.0087 96.24 90.0087C95.1038 90.0087 94.0127 89.5641 93.2 88.7701C92.437 87.9 92.0163 86.7823 92.0163 85.6251C92.0163 84.4679 92.437 83.3501 93.2 82.4801H93.22ZM94.42 87.7901C94.657 88.0363 94.9412 88.2321 95.2556 88.3659C95.5701 88.4997 95.9083 88.5686 96.25 88.5686C96.5917 88.5686 96.9299 88.4997 97.2444 88.3659C97.5588 88.2321 97.843 88.0363 98.08 87.7901C98.5658 87.173 98.8299 86.4104 98.8299 85.6251C98.8299 84.8397 98.5658 84.0772 98.08 83.4601C97.843 83.2139 97.5588 83.018 97.2444 82.8842C96.9299 82.7505 96.5917 82.6815 96.25 82.6815C95.9083 82.6815 95.5701 82.7505 95.2556 82.8842C94.9412 83.018 94.657 83.2139 94.42 83.4601C93.9342 84.0772 93.6701 84.8397 93.6701 85.6251C93.6701 86.4104 93.9342 87.173 94.42 87.7901ZM107.12 81.4101V83.1201C106.888 83.0892 106.654 83.0725 106.42 83.0701C104.9 83.0701 104.15 83.9201 104.15 85.6201V89.7501H102.53V81.4901H104.11V82.9401C104.311 82.4538 104.657 82.0412 105.101 81.7585C105.544 81.4758 106.064 81.3366 106.59 81.3601C106.768 81.3563 106.946 81.3731 107.12 81.4101V81.4101ZM110.43 89.7501H108.84V81.4901H110.38V82.5901C110.629 82.1574 111.002 81.8091 111.45 81.5901C111.895 81.3594 112.389 81.2394 112.89 81.2401C113.41 81.2387 113.921 81.3768 114.37 81.6401C114.823 81.9091 115.175 82.3205 115.37 82.8101C115.63 82.3084 116.03 81.893 116.522 81.6143C117.014 81.3356 117.576 81.2056 118.14 81.2401C118.511 81.2338 118.879 81.3024 119.222 81.4415C119.566 81.5807 119.878 81.7877 120.14 82.0501C120.439 82.3605 120.67 82.7298 120.818 83.1344C120.966 83.5391 121.028 83.9701 121 84.4001V89.7501H119.4V84.5701C119.423 84.0723 119.266 83.5829 118.96 83.1901C118.794 83.0127 118.589 82.8748 118.363 82.7866C118.136 82.6983 117.893 82.6619 117.65 82.6801C117.391 82.6733 117.134 82.7226 116.896 82.8244C116.657 82.9262 116.444 83.0782 116.27 83.2701C115.912 83.6824 115.723 84.2144 115.74 84.7601V89.7601H114.13V84.5701C114.153 84.0723 113.996 83.5829 113.69 83.1901C113.524 83.0127 113.319 82.8748 113.093 82.7866C112.866 82.6983 112.623 82.6619 112.38 82.6801C112.12 82.6686 111.86 82.7146 111.62 82.8148C111.38 82.9151 111.165 83.0671 110.99 83.2601C110.622 83.6749 110.429 84.2159 110.45 84.7701L110.43 89.7501ZM135.42 89.7501H128V77.5801H135.4V79.1401H129.7V82.8801H134.89V84.4601H129.7V88.1901H135.42V89.7501ZM139.44 89.7501H137.82V77.3201H139.44V89.7501ZM148 86.9201L149.39 87.4001C149.144 88.1615 148.656 88.8217 148 89.2801C147.313 89.7802 146.479 90.0371 145.63 90.0101C145.084 90.0199 144.541 89.9197 144.034 89.7152C143.527 89.5108 143.067 89.2063 142.68 88.8201C141.913 87.9403 141.49 86.8125 141.49 85.6451C141.49 84.4777 141.913 83.3498 142.68 82.4701C143.048 82.0882 143.489 81.7834 143.976 81.5733C144.463 81.3633 144.987 81.2522 145.517 81.2467C146.048 81.2411 146.574 81.3411 147.066 81.5408C147.557 81.7405 148.004 82.036 148.38 82.4101C149.112 83.2918 149.486 84.4157 149.43 85.5601C149.442 85.7332 149.442 85.9069 149.43 86.0801H143.21C143.203 86.4139 143.264 86.7457 143.39 87.0552C143.515 87.3646 143.703 87.6453 143.94 87.8801C144.17 88.1118 144.444 88.2943 144.747 88.4164C145.049 88.5385 145.374 88.5976 145.7 88.5901C146.217 88.6208 146.729 88.4711 147.149 88.1666C147.568 87.8621 147.869 87.4215 148 86.9201V86.9201ZM143.24 84.7701H147.76C147.765 84.4777 147.709 84.1874 147.595 83.9182C147.481 83.649 147.311 83.407 147.096 83.2078C146.882 83.0087 146.628 82.857 146.352 82.7626C146.075 82.6683 145.781 82.6333 145.49 82.6601C145.197 82.6503 144.906 82.7012 144.634 82.8097C144.362 82.9181 144.116 83.0817 143.91 83.2901C143.505 83.68 143.262 84.2086 143.23 84.7701H143.24ZM153.09 89.7501H151.49V81.4901H153V82.5901C153.252 82.1596 153.624 81.8121 154.07 81.5901C154.516 81.362 155.009 81.2421 155.51 81.2401C156.03 81.2387 156.541 81.3768 156.99 81.6401C157.448 81.903 157.802 82.3164 157.99 82.8101C158.251 82.3092 158.652 81.8945 159.143 81.616C159.635 81.3374 160.196 81.2069 160.76 81.2401C161.13 81.2361 161.498 81.3056 161.841 81.4447C162.184 81.5837 162.497 81.7895 162.76 82.0501C163.05 82.3632 163.273 82.7322 163.416 83.1346C163.559 83.5369 163.618 83.9641 163.59 84.3901V89.7401H162V84.5701C162.031 84.0713 161.874 83.5789 161.56 83.1901C161.394 83.0121 161.19 82.8739 160.963 82.7856C160.736 82.6973 160.493 82.6612 160.25 82.6801C159.992 82.6721 159.736 82.7208 159.499 82.8228C159.263 82.9247 159.051 83.0774 158.88 83.2701C158.519 83.6803 158.329 84.2138 158.35 84.7601V89.7601H156.73V84.5701C156.761 84.0713 156.604 83.5789 156.29 83.1901C156.124 83.0127 155.919 82.8748 155.693 82.7866C155.466 82.6983 155.223 82.6619 154.98 82.6801C154.72 82.6693 154.461 82.7156 154.221 82.8158C153.98 82.916 153.765 83.0677 153.59 83.2601C153.225 83.6759 153.035 84.2171 153.06 84.7701L153.09 89.7501ZM172 86.9201L173.39 87.4001C173.157 88.1546 172.687 88.8139 172.05 89.2801C171.363 89.7802 170.529 90.0371 169.68 90.0101C169.135 90.0226 168.593 89.9236 168.087 89.7189C167.581 89.5143 167.123 89.2084 166.74 88.8201C166.328 88.3952 166.008 87.89 165.8 87.336C165.592 86.782 165.5 86.1911 165.53 85.6001C165.488 84.4445 165.905 83.3194 166.69 82.4701C167.058 82.0882 167.499 81.7834 167.986 81.5733C168.473 81.3633 168.997 81.2522 169.527 81.2467C170.058 81.2411 170.584 81.3411 171.076 81.5408C171.567 81.7405 172.014 82.036 172.39 82.4101C173.104 83.299 173.46 84.4222 173.39 85.5601C173.402 85.7332 173.402 85.9069 173.39 86.0801H167.2C167.195 86.4136 167.258 86.7447 167.383 87.0539C167.508 87.363 167.694 87.6439 167.93 87.8801C168.16 88.1114 168.435 88.2936 168.737 88.4156C169.04 88.5376 169.364 88.597 169.69 88.5901C170.209 88.6232 170.723 88.4746 171.145 88.1699C171.566 87.8652 171.869 87.4233 172 86.9201V86.9201ZM167.24 84.7701H171.76C171.756 84.2026 171.534 83.6583 171.14 83.2501C170.919 83.0454 170.659 82.8876 170.375 82.7862C170.092 82.6848 169.791 82.6419 169.49 82.6601C169.197 82.6503 168.906 82.7012 168.634 82.8097C168.362 82.9181 168.116 83.0817 167.91 83.2901C167.516 83.6859 167.281 84.2126 167.25 84.7701H167.24ZM177.13 85.0001V89.7701H175.51V81.4901H177.09V82.6801C177.329 82.2869 177.654 81.9538 178.042 81.7066C178.43 81.4594 178.87 81.3047 179.327 81.2544C179.784 81.2042 180.247 81.2597 180.679 81.4167C181.111 81.5738 181.502 81.8281 181.82 82.1601C182.352 82.8284 182.626 83.6664 182.59 84.5201V89.7501H181V84.7501C181 83.3701 180.36 82.6701 179.08 82.6701C178.809 82.6579 178.538 82.7105 178.291 82.8235C178.045 82.9365 177.828 83.1067 177.66 83.3201C177.288 83.7985 177.1 84.3947 177.13 85.0001V85.0001ZM187.33 78.8801V81.4901H189.11V83.0001H187.33V87.3001C187.315 87.4519 187.331 87.6051 187.375 87.751C187.42 87.8968 187.493 88.0324 187.59 88.1501C187.711 88.2553 187.853 88.3345 188.006 88.3826C188.159 88.4308 188.32 88.4469 188.48 88.4301C188.692 88.4349 188.904 88.4114 189.11 88.3601V89.7301C188.757 89.8515 188.383 89.9057 188.01 89.8901C187.703 89.906 187.395 89.8593 187.106 89.7527C186.817 89.6461 186.553 89.4819 186.33 89.2701C186.116 89.0381 185.95 88.7654 185.844 88.4682C185.737 88.1709 185.692 87.8553 185.71 87.5401V83.0001H184.13V81.4901H184.58C184.754 81.5045 184.93 81.4806 185.094 81.4202C185.258 81.3597 185.407 81.2641 185.53 81.1401C185.75 80.8854 185.865 80.5563 185.85 80.2201V78.8801H187.33ZM190.57 87.6101L192.03 87.0901C192.078 87.5195 192.285 87.9155 192.61 88.2001C192.988 88.5046 193.465 88.661 193.95 88.6401C194.31 88.653 194.664 88.5398 194.95 88.3201C195.068 88.2269 195.163 88.1085 195.229 87.9734C195.295 87.8384 195.329 87.6903 195.33 87.5401C195.33 86.9901 194.98 86.6301 194.27 86.4701L192.86 86.1601C192.28 86.0613 191.749 85.7729 191.35 85.3401C190.983 84.9318 190.786 84.3987 190.8 83.8501C190.802 83.494 190.884 83.143 191.04 82.8228C191.196 82.5026 191.421 82.2215 191.7 82.0001C192.264 81.4919 193.001 81.2167 193.76 81.2301C194.24 81.2183 194.718 81.2963 195.17 81.4601C195.55 81.5753 195.894 81.7852 196.17 82.0701C196.374 82.2787 196.549 82.5142 196.69 82.7701C196.8 82.9837 196.887 83.2083 196.95 83.4401L195.52 83.9701C195.499 83.8319 195.458 83.6972 195.4 83.5701C195.329 83.4145 195.242 83.267 195.14 83.1301C195.002 82.9565 194.819 82.8249 194.61 82.7501C194.353 82.6444 194.077 82.5933 193.8 82.6001C193.437 82.5789 193.079 82.6969 192.8 82.9301C192.682 83.0211 192.585 83.1376 192.518 83.2708C192.45 83.4041 192.413 83.5507 192.41 83.7001C192.41 84.2301 192.73 84.5601 193.41 84.7001L194.74 84.9901C195.384 85.0993 195.979 85.4069 196.44 85.8701C196.832 86.2978 197.043 86.8603 197.03 87.4401C197.024 87.774 196.95 88.1031 196.812 88.4074C196.675 88.7117 196.476 88.9848 196.23 89.2101C195.932 89.4848 195.582 89.6964 195.201 89.8322C194.819 89.9679 194.414 90.025 194.01 90.0001C193.146 90.0545 192.294 89.7834 191.62 89.2401C191.083 88.8429 190.71 88.2632 190.57 87.6101V87.6101Z" fill="white"/>
<path d="M63.4404 98.3H130.39V108.27H63.4404V98.3Z" fill="#1B9FF0"/>
<path d="M63.4404 102.04H111.87V367.71H63.4404V102.04Z" fill="#37404A"/>
<path d="M76.2607 114.68H99.0507V137.47H76.2607V114.68Z" fill="white"/>
<path d="M77.6904 333.05H100.44V354.59H77.6904V333.05Z" fill="white"/>
<path d="M81.3008 331.92H89.6208V342.03H81.3008V331.92Z" fill="white"/>
<path d="M88.5107 331.92H96.8307V342.03H88.5107V331.92Z" fill="white"/>
<path d="M85.7402 339.12H96.7202V351.53H85.7402V339.12Z" fill="white"/>
<path d="M81.9004 339.29H91.2904V351.53H81.9004V339.29Z" fill="white"/>
<path d="M67.3604 147.8H227.5" stroke="#4A5360" stroke-width="0.859" stroke-miterlimit="10" stroke-linecap="square"/>
<path opacity="0.5" d="M220.721 104.71V365.04" stroke="#231F20" stroke-width="0.53" stroke-miterlimit="10"/>
<path d="M220.78 145.12H227.49V177.07H220.78V145.12Z" fill="#2F333A"/>
<path d="M67.3604 365.04H227.5M67.3604 191.25H220.72H67.3604ZM67.3604 234.7H220.03H67.3604ZM67.3604 321.59H220.78H67.3604Z" stroke="#4A5360" stroke-width="0.859" stroke-miterlimit="10" stroke-linecap="square"/>
<path d="M125.901 127H121.691V130.39H120.551V122.79H121.691V125.98H125.901V122.79H127.001V130.39H125.901V127ZM131.121 124.71C131.5 124.712 131.874 124.793 132.219 124.949C132.564 125.105 132.873 125.332 133.124 125.615C133.376 125.898 133.566 126.231 133.68 126.592C133.795 126.952 133.833 127.334 133.791 127.71V127.97H129.441C129.467 128.442 129.677 128.885 130.027 129.203C130.377 129.521 130.838 129.689 131.311 129.67C131.916 129.676 132.501 129.446 132.941 129.03L133.421 129.7C132.82 130.252 132.026 130.546 131.211 130.52C130.831 130.526 130.454 130.457 130.101 130.317C129.749 130.177 129.427 129.97 129.154 129.705C128.882 129.441 128.664 129.126 128.513 128.778C128.362 128.429 128.282 128.055 128.276 127.675C128.27 127.295 128.339 126.918 128.479 126.566C128.618 126.213 128.826 125.891 129.09 125.618C129.355 125.346 129.67 125.128 130.018 124.977C130.367 124.826 130.741 124.746 131.121 124.74V124.71ZM129.431 127.19H132.791C132.794 126.971 132.752 126.754 132.669 126.552C132.585 126.35 132.462 126.167 132.306 126.013C132.15 125.86 131.964 125.74 131.761 125.66C131.557 125.581 131.339 125.543 131.121 125.55C130.681 125.55 130.259 125.721 129.943 126.027C129.628 126.333 129.444 126.75 129.431 127.19V127.19ZM138.481 129.75C138.251 129.995 137.971 130.187 137.661 130.315C137.35 130.443 137.016 130.502 136.681 130.49C136.433 130.501 136.186 130.461 135.954 130.374C135.722 130.287 135.511 130.155 135.331 129.984C135.152 129.813 135.009 129.607 134.911 129.38C134.813 129.153 134.762 128.908 134.761 128.66C134.757 128.412 134.805 128.167 134.902 127.939C134.999 127.711 135.142 127.505 135.323 127.336C135.504 127.166 135.718 127.037 135.952 126.955C136.186 126.873 136.434 126.84 136.681 126.86C137.016 126.842 137.351 126.899 137.662 127.025C137.973 127.151 138.253 127.344 138.481 127.59V126.68C138.481 126 137.921 125.59 137.131 125.59C136.82 125.592 136.514 125.658 136.23 125.783C135.946 125.909 135.691 126.092 135.481 126.32L135.041 125.61C135.335 125.316 135.687 125.084 136.074 124.929C136.46 124.775 136.874 124.7 137.291 124.71C138.491 124.71 139.501 125.23 139.501 126.64V130.35H138.501L138.481 129.75ZM138.481 128.21C138.31 128.004 138.094 127.839 137.85 127.73C137.605 127.621 137.338 127.569 137.071 127.58C136.912 127.554 136.749 127.562 136.594 127.605C136.438 127.648 136.294 127.724 136.171 127.828C136.048 127.932 135.949 128.062 135.882 128.208C135.814 128.355 135.779 128.514 135.779 128.675C135.779 128.836 135.814 128.995 135.882 129.142C135.949 129.288 136.048 129.418 136.171 129.522C136.294 129.626 136.438 129.702 136.594 129.745C136.749 129.788 136.912 129.796 137.071 129.77C137.338 129.781 137.605 129.729 137.85 129.62C138.094 129.511 138.31 129.346 138.481 129.14V128.21ZM145.071 129.56C144.861 129.844 144.589 130.076 144.275 130.237C143.961 130.398 143.614 130.485 143.261 130.49C141.831 130.49 140.801 129.41 140.801 127.6C140.801 125.79 141.801 124.71 143.261 124.71C143.614 124.713 143.962 124.798 144.276 124.96C144.591 125.121 144.863 125.354 145.071 125.64V122.75H146.071V130.35H145.071V129.56ZM145.071 126.43C144.897 126.185 144.668 125.983 144.402 125.843C144.137 125.702 143.841 125.626 143.541 125.62C142.541 125.62 141.871 126.45 141.871 127.62C141.836 127.863 141.852 128.111 141.919 128.348C141.986 128.584 142.102 128.804 142.259 128.993C142.417 129.181 142.612 129.335 142.833 129.443C143.054 129.551 143.295 129.611 143.541 129.62C143.841 129.616 144.136 129.542 144.401 129.403C144.667 129.264 144.896 129.064 145.071 128.82V126.43ZM147.571 123.27C147.573 123.096 147.644 122.929 147.767 122.806C147.89 122.683 148.057 122.613 148.231 122.61C148.406 122.61 148.574 122.68 148.697 122.803C148.821 122.927 148.891 123.095 148.891 123.27C148.892 123.357 148.876 123.443 148.843 123.523C148.81 123.603 148.762 123.676 148.7 123.736C148.638 123.797 148.565 123.845 148.484 123.876C148.404 123.908 148.317 123.923 148.231 123.92C148.057 123.92 147.891 123.852 147.768 123.73C147.644 123.609 147.573 123.443 147.571 123.27V123.27ZM147.731 124.85H148.731V130.35H147.731V124.85ZM154.101 126.83C154.101 125.92 153.641 125.62 152.931 125.62C152.634 125.632 152.343 125.71 152.081 125.848C151.818 125.987 151.589 126.182 151.411 126.42V130.35H150.411V124.85H151.411V125.62C151.66 125.335 151.967 125.106 152.312 124.949C152.657 124.792 153.032 124.71 153.411 124.71C153.652 124.679 153.896 124.703 154.126 124.782C154.356 124.86 154.564 124.99 154.736 125.163C154.907 125.335 155.036 125.544 155.113 125.774C155.19 126.005 155.214 126.249 155.181 126.49V130.35H154.181L154.101 126.83ZM157.201 131C157.419 131.25 157.693 131.446 158 131.573C158.307 131.7 158.639 131.753 158.971 131.73C159.19 131.758 159.413 131.737 159.623 131.67C159.834 131.603 160.027 131.491 160.19 131.342C160.353 131.192 160.481 131.009 160.566 130.805C160.651 130.601 160.69 130.381 160.681 130.16V129.44C160.478 129.736 160.208 129.98 159.894 130.154C159.58 130.327 159.229 130.425 158.871 130.44C157.441 130.44 156.411 129.39 156.411 127.59C156.411 125.79 157.411 124.75 158.871 124.75C159.224 124.753 159.572 124.838 159.886 125C160.201 125.161 160.473 125.394 160.681 125.68V124.89H161.681V130.17C161.681 132.07 160.301 132.63 158.951 132.63C158.538 132.657 158.124 132.597 157.735 132.456C157.346 132.315 156.991 132.095 156.691 131.81L157.201 131ZM160.681 126.42C160.506 126.176 160.277 125.975 160.011 125.835C159.746 125.694 159.451 125.617 159.151 125.61C158.911 125.615 158.674 125.671 158.457 125.773C158.24 125.875 158.047 126.022 157.89 126.205C157.733 126.387 157.617 126.6 157.548 126.83C157.479 127.06 157.46 127.302 157.491 127.54C157.491 128.68 158.121 129.48 159.151 129.48C159.453 129.471 159.749 129.391 160.015 129.247C160.28 129.103 160.509 128.898 160.681 128.65V126.42ZM120.551 166.2H125.661V167.2H121.661V169.42H125.551V170.42H121.661V173.8H120.521L120.551 166.2ZM130.581 173.05C130.326 173.327 130.017 173.549 129.673 173.703C129.329 173.856 128.957 173.936 128.581 173.94C128.343 173.972 128.1 173.948 127.873 173.87C127.646 173.793 127.439 173.664 127.27 173.493C127.101 173.323 126.973 173.116 126.897 172.888C126.82 172.66 126.798 172.418 126.831 172.18V168.29H127.831V171.84C127.831 172.75 128.291 173.02 128.991 173.02C129.287 173.013 129.578 172.94 129.842 172.807C130.107 172.674 130.339 172.484 130.521 172.25V168.25H131.521V173.76H130.521L130.581 173.05ZM133.241 166.2H134.241V173.8H133.241V166.2ZM135.891 166.2H136.891V173.8H135.891V166.2ZM142.651 168V173.84H141.511V166.24H142.681L146.821 171.93V166.2H148.001V173.8H146.891L142.651 168ZM153.001 173.19C152.772 173.436 152.492 173.63 152.182 173.76C151.871 173.889 151.537 173.95 151.201 173.94C150.953 173.951 150.706 173.911 150.474 173.824C150.242 173.737 150.031 173.605 149.851 173.434C149.672 173.263 149.529 173.057 149.431 172.83C149.333 172.603 149.282 172.358 149.281 172.11C149.277 171.862 149.325 171.617 149.422 171.389C149.519 171.161 149.662 170.955 149.843 170.786C150.024 170.616 150.238 170.487 150.472 170.405C150.706 170.323 150.954 170.29 151.201 170.31C151.536 170.292 151.871 170.349 152.182 170.475C152.493 170.601 152.773 170.794 153.001 171.04V170.13C153.001 169.44 152.441 169.03 151.651 169.03C151.34 169.032 151.034 169.098 150.75 169.223C150.466 169.349 150.211 169.532 150.001 169.76L149.561 169.06C149.853 168.762 150.203 168.528 150.591 168.373C150.978 168.218 151.394 168.145 151.811 168.16C153.011 168.16 154.021 168.68 154.021 170.08V173.8H153.021L153.001 173.19ZM153.001 171.66C152.83 171.454 152.614 171.289 152.37 171.18C152.125 171.071 151.858 171.019 151.591 171.03C151.432 171.004 151.269 171.012 151.114 171.055C150.958 171.098 150.814 171.174 150.691 171.278C150.568 171.382 150.469 171.512 150.402 171.658C150.334 171.805 150.299 171.964 150.299 172.125C150.299 172.286 150.334 172.445 150.402 172.592C150.469 172.738 150.568 172.868 150.691 172.972C150.814 173.076 150.958 173.152 151.114 173.195C151.269 173.238 151.432 173.246 151.591 173.22C151.858 173.231 152.125 173.179 152.37 173.07C152.614 172.961 152.83 172.796 153.001 172.59V171.66ZM162.381 170.13C162.381 169.49 162.091 169.07 161.381 169.07C161.108 169.087 160.843 169.166 160.605 169.301C160.368 169.436 160.164 169.624 160.011 169.85V173.85H159.011V170.18C159.011 169.54 158.741 169.12 158.011 169.12C157.74 169.142 157.477 169.226 157.243 169.364C157.01 169.503 156.81 169.693 156.661 169.92V173.85H155.661V168.34H156.661V169.12C156.875 168.849 157.144 168.628 157.452 168.471C157.759 168.314 158.096 168.225 158.441 168.21C158.766 168.18 159.092 168.263 159.364 168.445C159.635 168.627 159.835 168.897 159.931 169.21C160.14 168.908 160.417 168.66 160.74 168.486C161.064 168.312 161.424 168.218 161.791 168.21C162.791 168.21 163.351 168.76 163.351 169.87V173.87H162.351L162.381 170.13ZM167.451 168.16C167.83 168.162 168.204 168.243 168.549 168.399C168.894 168.555 169.203 168.782 169.454 169.065C169.706 169.348 169.896 169.681 170.01 170.042C170.125 170.402 170.163 170.784 170.121 171.16V171.41H165.771C165.794 171.884 166.004 172.33 166.354 172.65C166.704 172.97 167.167 173.139 167.641 173.12C168.248 173.122 168.832 172.889 169.271 172.47L169.751 173.14C169.455 173.417 169.108 173.633 168.728 173.775C168.349 173.918 167.946 173.984 167.541 173.97C166.774 173.982 166.034 173.689 165.484 173.155C164.934 172.622 164.618 171.891 164.606 171.125C164.594 170.359 164.887 169.619 165.42 169.068C165.954 168.518 166.684 168.202 167.451 168.19V168.16ZM165.761 170.64H169.121C169.124 170.421 169.082 170.204 168.999 170.002C168.915 169.8 168.792 169.617 168.636 169.463C168.48 169.31 168.294 169.19 168.091 169.11C167.887 169.031 167.669 168.993 167.451 169C167.011 169 166.589 169.171 166.273 169.477C165.958 169.783 165.774 170.2 165.761 170.64V170.64ZM120.551 209.64H125.661V210.64H121.661V212.86H125.551V213.86H121.661V216.23H125.661V217.23H120.551V209.64ZM133.751 213.58C133.751 212.94 133.461 212.52 132.751 212.52C132.478 212.536 132.212 212.615 131.975 212.75C131.737 212.885 131.534 213.073 131.381 213.3V217.25H130.381V213.58C130.381 212.94 130.101 212.52 129.381 212.52C129.111 212.542 128.849 212.624 128.615 212.761C128.382 212.897 128.182 213.085 128.031 213.31V217.25H127.031V211.74H128.031V212.52C128.242 212.246 128.511 212.022 128.819 211.863C129.126 211.704 129.465 211.614 129.811 211.6C130.137 211.571 130.464 211.654 130.737 211.836C131.009 212.018 131.212 212.287 131.311 212.6C131.518 212.299 131.794 212.051 132.115 211.877C132.437 211.703 132.795 211.608 133.161 211.6C134.161 211.6 134.731 212.16 134.731 213.27V217.27H133.731L133.751 213.58ZM139.801 216.64C139.571 216.885 139.291 217.077 138.981 217.205C138.67 217.333 138.336 217.392 138.001 217.38C137.754 217.392 137.507 217.354 137.275 217.268C137.043 217.182 136.831 217.05 136.652 216.88C136.472 216.71 136.329 216.506 136.231 216.279C136.133 216.052 136.082 215.807 136.081 215.56C136.077 215.312 136.125 215.067 136.222 214.839C136.319 214.611 136.462 214.405 136.643 214.236C136.824 214.066 137.038 213.937 137.272 213.855C137.506 213.773 137.754 213.74 138.001 213.76C138.336 213.742 138.671 213.799 138.982 213.925C139.293 214.051 139.573 214.244 139.801 214.49V213.58C139.801 212.89 139.241 212.48 138.461 212.48C138.149 212.48 137.84 212.546 137.554 212.671C137.269 212.797 137.012 212.98 136.801 213.21L136.361 212.5C136.656 212.207 137.008 211.976 137.394 211.821C137.781 211.666 138.195 211.591 138.611 211.6C139.811 211.6 140.831 212.13 140.831 213.53V217.25H139.831L139.801 216.64ZM139.801 215.1C139.629 214.895 139.413 214.733 139.168 214.625C138.924 214.518 138.658 214.468 138.391 214.48C138.235 214.459 138.077 214.471 137.927 214.516C137.776 214.561 137.637 214.638 137.519 214.742C137.401 214.845 137.306 214.972 137.241 215.115C137.176 215.258 137.143 215.413 137.143 215.57C137.143 215.727 137.176 215.882 137.241 216.025C137.306 216.168 137.401 216.295 137.519 216.398C137.637 216.502 137.776 216.578 137.927 216.624C138.077 216.669 138.235 216.681 138.391 216.66C138.658 216.672 138.924 216.622 139.168 216.514C139.413 216.407 139.629 216.245 139.801 216.04V215.1ZM142.311 210.17C142.309 210.039 142.346 209.91 142.417 209.801C142.488 209.691 142.591 209.605 142.711 209.553C142.832 209.502 142.965 209.487 143.093 209.511C143.222 209.536 143.341 209.598 143.434 209.69C143.527 209.782 143.591 209.899 143.617 210.027C143.644 210.156 143.631 210.289 143.581 210.41C143.532 210.531 143.447 210.635 143.338 210.708C143.23 210.781 143.102 210.82 142.971 210.82C142.797 210.82 142.631 210.752 142.508 210.63C142.384 210.509 142.313 210.343 142.311 210.17V210.17ZM142.471 211.74H143.471V217.25H142.471V211.74ZM145.121 209.64H146.121V217.25H145.121V209.64ZM122.411 297.54H120.051V296.54H125.901V297.54H123.551V304.14H122.411V297.54ZM128.221 298.5C128.6 298.502 128.974 298.584 129.32 298.739C129.666 298.895 129.975 299.122 130.227 299.404C130.48 299.687 130.67 300.02 130.786 300.381C130.902 300.742 130.941 301.123 130.901 301.5V301.75H126.551C126.574 302.224 126.784 302.67 127.134 302.99C127.484 303.31 127.947 303.479 128.421 303.46C129.028 303.466 129.614 303.233 130.051 302.81L130.521 303.49C129.921 304.044 129.127 304.338 128.311 304.31C127.544 304.322 126.804 304.029 126.254 303.495C125.704 302.962 125.388 302.231 125.376 301.465C125.364 300.699 125.657 299.959 126.19 299.408C126.724 298.858 127.454 298.542 128.221 298.53V298.5ZM126.541 301H129.901C129.901 300.781 129.857 300.565 129.772 300.363C129.687 300.161 129.563 299.979 129.406 299.826C129.25 299.673 129.064 299.553 128.861 299.473C128.657 299.393 128.439 299.355 128.221 299.36C127.782 299.36 127.361 299.531 127.047 299.838C126.733 300.144 126.551 300.561 126.541 301V301ZM133.761 302L132.211 304.14H131.051L133.111 301.31L131.171 298.64H132.341L133.761 300.64L135.171 298.64H136.341L134.341 301.31L136.411 304.14H135.301L133.761 302ZM137.581 302.92V299.54H136.671V298.64H137.581V297.13H138.581V298.64H139.701V299.54H138.601V302.69C138.601 303.08 138.791 303.37 139.141 303.37C139.348 303.369 139.548 303.291 139.701 303.15L139.961 303.92C139.816 304.049 139.646 304.147 139.462 304.208C139.278 304.27 139.084 304.295 138.891 304.28C138.71 304.298 138.527 304.275 138.356 304.213C138.185 304.15 138.031 304.05 137.905 303.919C137.779 303.788 137.684 303.63 137.628 303.457C137.572 303.284 137.556 303.1 137.581 302.92V302.92ZM148.631 302.57H144.901L144.291 304.14H143.001L146.001 296.54H147.421L150.421 304.14H149.171L148.631 302.57ZM145.241 301.57H148.301L146.761 297.57L145.241 301.57ZM151.391 298.64H152.391V299.48C152.597 299.187 152.867 298.944 153.18 298.771C153.494 298.598 153.843 298.498 154.201 298.48V299.48C154.081 299.464 153.96 299.464 153.841 299.48C153.556 299.502 153.279 299.585 153.029 299.723C152.779 299.861 152.561 300.051 152.391 300.28V304.11H151.391V298.64ZM157.661 298.5C158.04 298.502 158.414 298.584 158.76 298.739C159.106 298.895 159.415 299.122 159.667 299.404C159.92 299.687 160.11 300.02 160.226 300.381C160.342 300.742 160.381 301.123 160.341 301.5V301.75H156.001C156.027 302.223 156.237 302.667 156.587 302.987C156.936 303.307 157.397 303.476 157.871 303.46C158.478 303.466 159.064 303.233 159.501 302.81L159.981 303.49C159.38 304.042 158.586 304.336 157.771 304.31C157.004 304.322 156.264 304.029 155.714 303.495C155.164 302.962 154.848 302.231 154.836 301.465C154.824 300.699 155.117 299.959 155.65 299.408C156.184 298.858 156.914 298.542 157.681 298.53L157.661 298.5ZM156.001 301H159.361C159.364 300.781 159.322 300.564 159.239 300.362C159.155 300.16 159.032 299.977 158.876 299.823C158.72 299.67 158.534 299.55 158.331 299.47C158.127 299.391 157.909 299.353 157.691 299.36C157.251 299.36 156.829 299.531 156.513 299.837C156.198 300.143 156.014 300.56 156.001 301ZM165.001 303.54C164.771 303.785 164.491 303.977 164.181 304.105C163.87 304.233 163.536 304.292 163.201 304.28C162.953 304.291 162.706 304.251 162.474 304.164C162.242 304.077 162.031 303.945 161.851 303.774C161.672 303.603 161.529 303.397 161.431 303.17C161.333 302.943 161.282 302.698 161.281 302.45C161.277 302.202 161.325 301.957 161.422 301.729C161.519 301.501 161.662 301.295 161.843 301.126C162.024 300.956 162.238 300.827 162.472 300.745C162.706 300.663 162.954 300.63 163.201 300.65C163.536 300.632 163.871 300.689 164.182 300.815C164.493 300.941 164.773 301.134 165.001 301.38V300.47C165.001 299.79 164.441 299.38 163.651 299.38C163.34 299.382 163.034 299.448 162.75 299.573C162.466 299.699 162.211 299.881 162.001 300.11L161.561 299.4C161.855 299.106 162.207 298.874 162.594 298.719C162.98 298.565 163.394 298.49 163.811 298.5C165.011 298.5 166.021 299.02 166.021 300.43V304.14H165.021L165.001 303.54ZM165.001 302C164.83 301.794 164.614 301.629 164.37 301.52C164.125 301.411 163.858 301.359 163.591 301.37C163.432 301.344 163.269 301.352 163.114 301.395C162.958 301.438 162.814 301.514 162.691 301.618C162.568 301.722 162.469 301.852 162.402 301.998C162.334 302.145 162.299 302.304 162.299 302.465C162.299 302.626 162.334 302.785 162.402 302.932C162.469 303.078 162.568 303.208 162.691 303.312C162.814 303.416 162.958 303.492 163.114 303.535C163.269 303.578 163.432 303.586 163.591 303.56C163.858 303.571 164.125 303.519 164.37 303.41C164.614 303.301 164.83 303.136 165.001 302.93V302ZM120.551 340H123.261C124.269 340 125.235 340.4 125.948 341.113C126.66 341.826 127.061 342.792 127.061 343.8C127.061 344.808 126.66 345.774 125.948 346.487C125.235 347.2 124.269 347.6 123.261 347.6H120.551V340ZM123.261 346.6C123.632 346.617 124.002 346.557 124.348 346.422C124.694 346.287 125.008 346.081 125.269 345.817C125.53 345.553 125.733 345.237 125.864 344.889C125.995 344.542 126.052 344.171 126.031 343.8C126.055 343.428 126.001 343.056 125.871 342.707C125.741 342.358 125.538 342.041 125.276 341.776C125.014 341.512 124.699 341.306 124.352 341.172C124.004 341.038 123.633 340.979 123.261 341H121.691V346.6H123.261ZM132.001 347C131.772 347.246 131.492 347.44 131.182 347.57C130.871 347.699 130.537 347.76 130.201 347.75C129.953 347.761 129.706 347.721 129.474 347.634C129.242 347.547 129.031 347.415 128.851 347.244C128.672 347.073 128.529 346.867 128.431 346.64C128.333 346.413 128.282 346.168 128.281 345.92C128.277 345.672 128.325 345.427 128.422 345.199C128.519 344.971 128.662 344.765 128.843 344.596C129.024 344.426 129.238 344.297 129.472 344.215C129.706 344.133 129.954 344.1 130.201 344.12C130.536 344.102 130.871 344.159 131.182 344.285C131.493 344.411 131.773 344.604 132.001 344.85V343.94C132.001 343.25 131.441 342.84 130.661 342.84C130.349 342.84 130.04 342.906 129.754 343.031C129.469 343.157 129.212 343.34 129.001 343.57L128.561 342.87C128.855 342.575 129.206 342.343 129.593 342.188C129.98 342.033 130.394 341.959 130.811 341.97C132.011 341.97 133.031 342.49 133.031 343.89V347.61H132.031L132.001 347ZM132.001 345.47C131.83 345.264 131.614 345.099 131.37 344.99C131.125 344.881 130.858 344.829 130.591 344.84C130.432 344.814 130.269 344.822 130.114 344.865C129.958 344.908 129.814 344.984 129.691 345.088C129.568 345.192 129.469 345.322 129.402 345.468C129.334 345.615 129.299 345.774 129.299 345.935C129.299 346.096 129.334 346.255 129.402 346.402C129.469 346.548 129.568 346.678 129.691 346.782C129.814 346.886 129.958 346.962 130.114 347.005C130.269 347.048 130.432 347.056 130.591 347.03C130.858 347.041 131.125 346.989 131.37 346.88C131.614 346.771 131.83 346.606 132.001 346.4V345.47ZM134.831 346.37V343H133.921V342.1H134.831V340.6H135.831V342.1H137.001V343H135.891V346.16C135.891 346.55 136.071 346.83 136.421 346.83C136.628 346.835 136.828 346.76 136.981 346.62L137.241 347.39C137.097 347.52 136.927 347.619 136.743 347.681C136.559 347.743 136.364 347.766 136.171 347.75C135.986 347.772 135.799 347.751 135.623 347.689C135.448 347.627 135.289 347.525 135.159 347.391C135.03 347.258 134.933 347.096 134.876 346.919C134.819 346.742 134.803 346.554 134.831 346.37V346.37ZM140.531 342C140.91 342 141.286 342.081 141.632 342.236C141.978 342.392 142.288 342.618 142.541 342.901C142.794 343.184 142.984 343.518 143.1 343.879C143.215 344.241 143.253 344.623 143.211 345V345.25H138.851C138.877 345.723 139.087 346.167 139.437 346.487C139.786 346.807 140.247 346.976 140.721 346.96C141.328 346.962 141.912 346.729 142.351 346.31L142.831 346.98C142.535 347.257 142.188 347.473 141.809 347.616C141.429 347.758 141.026 347.824 140.621 347.81C139.854 347.822 139.114 347.529 138.564 346.995C138.014 346.462 137.698 345.731 137.686 344.965C137.674 344.199 137.967 343.459 138.5 342.908C139.034 342.358 139.764 342.042 140.531 342.03V342ZM138.841 344.48H142.211C142.211 344.261 142.167 344.045 142.082 343.843C141.997 343.641 141.873 343.459 141.716 343.306C141.56 343.153 141.374 343.033 141.171 342.953C140.967 342.873 140.749 342.835 140.531 342.84C140.099 342.839 139.684 343.003 139.37 343.299C139.056 343.595 138.866 343.999 138.841 344.43V344.48ZM147.461 340H150.661C150.98 339.979 151.301 340.024 151.602 340.132C151.904 340.24 152.18 340.408 152.413 340.627C152.647 340.846 152.833 341.111 152.961 341.404C153.088 341.698 153.154 342.015 153.154 342.335C153.154 342.655 153.088 342.972 152.961 343.266C152.833 343.559 152.647 343.824 152.413 344.043C152.18 344.262 151.904 344.43 151.602 344.538C151.301 344.646 150.98 344.691 150.661 344.67H148.601V347.6H147.461V340ZM150.461 341H148.601V343.67H150.511C150.696 343.686 150.882 343.663 151.058 343.604C151.234 343.544 151.395 343.448 151.532 343.323C151.669 343.197 151.778 343.044 151.853 342.874C151.928 342.704 151.966 342.521 151.966 342.335C151.966 342.149 151.928 341.966 151.853 341.796C151.778 341.626 151.669 341.473 151.532 341.347C151.395 341.222 151.234 341.126 151.058 341.066C150.882 341.007 150.696 340.984 150.511 341H150.461ZM154.081 340.51C154.083 340.336 154.154 340.169 154.277 340.046C154.4 339.923 154.567 339.853 154.741 339.85C154.915 339.853 155.081 339.923 155.205 340.046C155.328 340.169 155.398 340.336 155.401 340.51C155.401 340.685 155.331 340.853 155.207 340.977C155.084 341.1 154.916 341.17 154.741 341.17C154.566 341.17 154.398 341.1 154.274 340.977C154.15 340.853 154.081 340.685 154.081 340.51ZM154.241 342.08H155.241V347.59H154.241V342.08ZM159.361 342C159.76 341.984 160.157 342.066 160.517 342.241C160.876 342.415 161.187 342.676 161.421 343L160.731 343.63C160.586 343.412 160.388 343.234 160.155 343.115C159.922 342.996 159.662 342.939 159.401 342.95C158.931 343.025 158.503 343.265 158.194 343.627C157.886 343.989 157.716 344.449 157.716 344.925C157.716 345.401 157.886 345.861 158.194 346.223C158.503 346.585 158.931 346.825 159.401 346.9C159.662 346.909 159.921 346.851 160.154 346.732C160.386 346.613 160.585 346.437 160.731 346.22L161.421 346.85C161.187 347.174 160.876 347.435 160.517 347.609C160.157 347.784 159.76 347.866 159.361 347.85C158.594 347.85 157.859 347.546 157.317 347.004C156.775 346.462 156.471 345.726 156.471 344.96C156.471 344.194 156.775 343.458 157.317 342.916C157.859 342.374 158.594 342.07 159.361 342.07V342ZM164.401 345.22L163.571 346.06V347.59H162.571V340H163.571V344.89L166.231 342.09H167.521L165.141 344.59L167.541 347.59H166.241L164.401 345.22ZM170.631 342C171.01 342.002 171.384 342.083 171.729 342.239C172.074 342.395 172.383 342.622 172.634 342.905C172.886 343.188 173.076 343.521 173.19 343.882C173.305 344.242 173.343 344.624 173.301 345V345.25H169.001C169.024 345.724 169.234 346.17 169.584 346.49C169.934 346.81 170.397 346.979 170.871 346.96C171.478 346.962 172.062 346.729 172.501 346.31L172.981 346.98C172.685 347.257 172.338 347.473 171.958 347.615C171.579 347.758 171.176 347.824 170.771 347.81C170.004 347.822 169.264 347.529 168.714 346.995C168.164 346.462 167.848 345.731 167.836 344.965C167.824 344.199 168.117 343.459 168.65 342.908C169.184 342.358 169.914 342.042 170.681 342.03L170.631 342ZM168.941 344.48H172.301C172.304 344.261 172.262 344.044 172.179 343.842C172.095 343.64 171.972 343.457 171.816 343.303C171.66 343.15 171.474 343.03 171.271 342.95C171.067 342.871 170.849 342.833 170.631 342.84C170.199 342.839 169.784 343.003 169.47 343.299C169.156 343.595 168.966 343.999 168.941 344.43V344.48ZM174.591 342.08H175.591V342.93C175.794 342.637 176.062 342.394 176.374 342.22C176.686 342.047 177.034 341.948 177.391 341.93V342.93C177.271 342.918 177.15 342.918 177.031 342.93C176.747 342.949 176.471 343.031 176.222 343.17C175.973 343.308 175.757 343.499 175.591 343.73V347.56H174.591V342.08Z" fill="white"/>
<path d="M76.2607 158.13H99.0507V180.92H76.2607V158.13Z" fill="white"/>
<path d="M76.2607 204.43H99.0007V223.69H76.2607V204.43Z" fill="white"/>
<path d="M76.2607 288.54H99.0007V311.28H76.2607V288.54Z" fill="white"/>
<path d="M81.0801 290.62H90.7801V302.47H81.0801V290.62Z" fill="white"/>
<path d="M78.1807 291.24H88.0007V301.51H78.1807V291.24Z" fill="white"/>
<path opacity="0.5" d="M76.6299 278.34H227.49V286.04H76.6299V278.34Z" fill="#37404A"/>
<path d="M114.38 232.04H244.65V281.9H114.38V232.04Z" fill="#1B9FF0"/>
<path d="M73.0703 232.04H121.5V282.61H73.0703V232.04Z" fill="#1C83BE"/>
<path d="M85.8906 250.09H108.631V266.26H85.8906V250.09Z" fill="white"/>
<path d="M87.54 252.95H97.23V263.07H87.54V252.95Z" fill="white"/>
<path d="M90.7002 252.94H99.9402V263.07H90.7002V252.94Z" fill="white"/>
<path d="M93.3105 252.95H103.021V263.07H93.3105V252.95Z" fill="white"/>
<path d="M93.5801 247.79H108.08V268.76H93.5801V247.79Z" fill="white"/>
<path d="M132.001 254.65H129.641V253.65H135.491V254.65H133.141V261.25H132.001V254.65ZM137.851 255.6C138.23 255.602 138.604 255.684 138.95 255.839C139.296 255.995 139.605 256.222 139.857 256.505C140.11 256.787 140.3 257.12 140.416 257.481C140.532 257.842 140.571 258.223 140.531 258.6V258.85H136.181C136.204 259.322 136.412 259.766 136.76 260.086C137.108 260.406 137.568 260.576 138.041 260.56C138.648 260.564 139.233 260.331 139.671 259.91L140.151 260.58C139.855 260.856 139.507 261.071 139.128 261.211C138.748 261.352 138.345 261.416 137.941 261.4C137.174 261.412 136.434 261.119 135.884 260.585C135.333 260.052 135.018 259.322 135.006 258.555C134.994 257.789 135.287 257.049 135.82 256.498C136.354 255.948 137.084 255.632 137.851 255.62V255.6ZM136.161 258.09H139.531C139.531 257.871 139.487 257.655 139.402 257.453C139.317 257.251 139.193 257.069 139.036 256.916C138.88 256.763 138.694 256.643 138.491 256.563C138.287 256.483 138.069 256.445 137.851 256.45C137.412 256.452 136.991 256.624 136.676 256.93C136.361 257.236 136.176 257.651 136.161 258.09ZM143.391 259.1L141.841 261.25H140.681L142.741 258.42L140.801 255.74H142.001L143.431 257.74L144.841 255.74H146.001L144.001 258.42L146.071 261.25H144.911L143.391 259.1ZM147.211 260V256.61H146.291V255.71H147.211V254.21H148.211V255.71H149.331V256.61H148.211V259.77C148.211 260.16 148.391 260.44 148.751 260.44C148.854 260.442 148.957 260.424 149.053 260.386C149.149 260.348 149.236 260.292 149.311 260.22L149.571 261C149.425 261.127 149.255 261.223 149.071 261.283C148.887 261.343 148.693 261.366 148.501 261.35C148.322 261.367 148.141 261.343 147.973 261.28C147.805 261.217 147.653 261.117 147.529 260.987C147.405 260.858 147.312 260.701 147.256 260.53C147.201 260.359 147.186 260.178 147.211 260ZM153.451 253.64H157.001C157.272 253.61 157.547 253.639 157.806 253.723C158.066 253.807 158.305 253.945 158.507 254.129C158.709 254.312 158.87 254.536 158.98 254.786C159.089 255.037 159.144 255.307 159.141 255.58C159.157 255.979 159.034 256.372 158.793 256.691C158.553 257.01 158.209 257.236 157.821 257.33C158.243 257.422 158.62 257.658 158.888 257.997C159.156 258.336 159.298 258.758 159.291 259.19C159.301 259.475 159.249 259.76 159.14 260.024C159.031 260.287 158.867 260.525 158.659 260.72C158.45 260.915 158.203 261.064 157.932 261.155C157.662 261.246 157.375 261.279 157.091 261.25H153.431L153.451 253.64ZM156.801 256.87C157.095 256.87 157.377 256.753 157.586 256.545C157.794 256.337 157.911 256.054 157.911 255.76C157.911 255.466 157.794 255.183 157.586 254.975C157.377 254.767 157.095 254.65 156.801 254.65H154.591V256.87H156.801ZM156.861 260.24C157.026 260.261 157.194 260.245 157.352 260.194C157.511 260.143 157.656 260.057 157.778 259.944C157.9 259.83 157.996 259.692 158.059 259.537C158.121 259.383 158.149 259.216 158.141 259.05C158.143 258.886 158.11 258.723 158.045 258.572C157.98 258.421 157.884 258.286 157.764 258.175C157.643 258.063 157.5 257.979 157.345 257.926C157.189 257.874 157.024 257.855 156.861 257.87H154.591V260.24H156.861ZM160.361 258.49C160.382 257.945 160.563 257.419 160.882 256.977C161.2 256.534 161.641 256.195 162.151 256.001C162.66 255.808 163.215 255.768 163.747 255.888C164.279 256.007 164.764 256.28 165.142 256.673C165.52 257.066 165.774 257.561 165.873 258.097C165.971 258.633 165.91 259.186 165.697 259.688C165.484 260.189 165.128 260.617 164.673 260.918C164.219 261.219 163.686 261.38 163.141 261.38C162.764 261.388 162.39 261.317 162.042 261.173C161.694 261.029 161.38 260.815 161.118 260.543C160.857 260.272 160.655 259.949 160.525 259.596C160.394 259.243 160.338 258.866 160.361 258.49V258.49ZM164.851 258.49C164.799 258.164 164.655 257.859 164.435 257.611C164.216 257.364 163.93 257.185 163.612 257.095C163.294 257.005 162.957 257.009 162.64 257.104C162.324 257.2 162.042 257.385 161.827 257.636C161.612 257.887 161.474 258.195 161.428 258.522C161.383 258.85 161.432 259.183 161.57 259.483C161.709 259.784 161.93 260.038 162.208 260.217C162.486 260.395 162.81 260.49 163.141 260.49C163.388 260.482 163.631 260.423 163.855 260.316C164.078 260.209 164.276 260.056 164.437 259.868C164.598 259.679 164.718 259.46 164.789 259.222C164.86 258.985 164.881 258.736 164.851 258.49V258.49Z" fill="white"/>
<path d="M168.891 259.1L167.341 261.25H166.181L168.241 258.42L166.311 255.74H167.471L168.891 257.74L170.311 255.74H171.471L169.521 258.42L171.591 261.25H170.431L168.891 259.1Z" fill="white"/>
<path d="M262.71 309L261.77 309.1C231.43 312.27 213.35 297.41 188.46 262.1C185.4 257.77 184.34 253.1 188.68 250.1C193.02 247.1 195.48 249.2 198.54 253.53C209.06 268.45 212.09 273.53 224.88 281.08C236.8 288.08 248.88 291.19 259.77 290.08C276.9 288.3 290.67 276.33 299.64 255.47C300.086 254.243 300.777 253.12 301.671 252.17C302.566 251.219 303.645 250.461 304.842 249.941C306.04 249.422 307.33 249.152 308.636 249.148C309.941 249.144 311.233 249.407 312.434 249.92C313.634 250.432 314.717 251.184 315.617 252.13C316.517 253.075 317.215 254.195 317.667 255.419C318.12 256.643 318.318 257.947 318.25 259.25C318.182 260.554 317.848 261.83 317.27 263C305.72 289.83 286.36 306.14 262.71 309Z" fill="#F7B595"/>
<path d="M191.11 255C195.45 251.94 197.92 254.1 200.97 258.43C211.5 273.35 214.53 278.43 227.32 285.98C239.23 292.98 251.32 296.09 262.21 294.98C279.34 293.2 293.11 281.22 302.07 260.37C302.699 258.901 303.686 257.613 304.94 256.622C306.194 255.631 307.676 254.97 309.251 254.697C310.826 254.425 312.444 254.551 313.958 255.063C315.472 255.575 316.834 256.458 317.92 257.63C317.585 255.581 316.595 253.697 315.098 252.259C313.601 250.821 311.677 249.908 309.617 249.656C307.556 249.405 305.47 249.829 303.671 250.865C301.872 251.9 300.457 253.492 299.64 255.4C290.64 276.26 276.9 288.23 259.77 290.01C248.86 291.15 236.77 288.01 224.88 281.01C212.09 273.48 209.06 268.38 198.54 253.46C195.48 249.13 193.01 246.97 188.68 250.03C184.35 253.09 185.4 257.75 188.46 262.03C188.078 260.729 188.13 259.34 188.608 258.072C189.087 256.803 189.965 255.725 191.11 255V255Z" fill="#F8BFA3"/>
<path d="M182.551 241.063L204.464 238.435L206.285 253.616C206.632 256.513 205.815 259.429 204.013 261.723C202.21 264.016 199.57 265.5 196.674 265.848C195.239 266.02 193.785 265.908 192.394 265.518C191.003 265.128 189.703 264.468 188.567 263.575C187.431 262.683 186.482 261.575 185.774 260.316C185.067 259.057 184.614 257.67 184.442 256.236L182.621 241.055L182.551 241.063Z" fill="#F7B595"/>
<path d="M212.051 246.86C211.238 251.719 208.976 256.219 205.561 259.77C205.162 260.56 204.467 261.159 203.627 261.436C202.787 261.714 201.871 261.647 201.081 261.25C200.291 260.851 199.692 260.156 199.414 259.316C199.137 258.476 199.204 257.561 199.601 256.77C203.046 253.245 205.314 248.738 206.091 243.87C206.287 243.478 206.559 243.129 206.89 242.842C207.222 242.556 207.607 242.337 208.023 242.2C208.44 242.062 208.879 242.008 209.316 242.041C209.753 242.074 210.18 242.192 210.571 242.39C210.962 242.585 211.311 242.856 211.598 243.187C211.884 243.518 212.103 243.902 212.24 244.317C212.378 244.733 212.432 245.171 212.399 245.608C212.367 246.044 212.248 246.47 212.051 246.86ZM191.851 233L193.631 248.64C193.733 249.321 193.565 250.016 193.164 250.576C192.762 251.136 192.159 251.518 191.481 251.64C191.146 251.673 190.807 251.638 190.486 251.538C190.164 251.438 189.866 251.275 189.609 251.058C189.352 250.84 189.14 250.574 188.988 250.274C188.835 249.974 188.744 249.646 188.721 249.31L186.931 233.66C186.826 232.977 186.994 232.28 187.398 231.719C187.802 231.158 188.41 230.778 189.091 230.66C189.426 230.629 189.765 230.664 190.086 230.766C190.408 230.867 190.706 231.031 190.963 231.249C191.22 231.467 191.431 231.734 191.584 232.035C191.736 232.336 191.827 232.664 191.851 233V233Z" fill="#F7B595"/>
<path d="M198.239 231.135L200.165 246.777C200.346 248.246 201.681 249.29 203.147 249.11C204.613 248.929 205.655 247.592 205.475 246.123L203.548 230.481C203.368 229.012 202.032 227.967 200.566 228.148C199.1 228.329 198.058 229.666 198.239 231.135Z" fill="#F7B595"/>
<path d="M181.831 235.273L183.376 247.819C183.543 249.172 184.773 250.135 186.124 249.969C187.475 249.802 188.436 248.57 188.269 247.216L186.724 234.671C186.557 233.317 185.327 232.354 183.976 232.521C182.625 232.687 181.664 233.919 181.831 235.273Z" fill="#F7B595"/>
<path d="M192.231 232.064L194.597 251.278C194.792 252.863 196.234 253.989 197.819 253.794C199.403 253.599 200.529 252.156 200.334 250.572L197.968 231.357C197.773 229.773 196.33 228.647 194.746 228.842C193.162 229.037 192.036 230.479 192.231 232.064Z" fill="#F7B595"/>
<path d="M507.37 324.43L499.21 325.86C498.565 325.829 497.919 325.862 497.28 325.96C471.71 329.96 456.7 329.32 447.08 323.84C440.51 320.1 432.3 312.2 427 284.06C426.528 281.558 425.081 279.345 422.978 277.91C420.875 276.474 418.288 275.933 415.785 276.405C413.283 276.877 411.071 278.324 409.635 280.427C408.2 282.53 407.658 285.118 408.13 287.62C413.4 315.62 422.48 331.92 437.57 340.52C445.607 345.374 454.865 347.827 464.25 347.59C477.45 347.59 486.69 340.73 501.19 338.46C502.19 338.31 503.07 338.24 503.87 338.19C506.625 339.296 509.608 339.715 512.56 339.41L518.75 337.15C523.07 335.21 527.52 336.71 528.58 335.81C536.63 329 514.81 323.12 507.37 324.43V324.43Z" fill="#EFA98D"/>
<path d="M442.25 338.71C429.65 328.18 420.71 316.62 415.33 291.35L409.09 292.35C414.47 317.48 423.35 332.45 437.57 340.55C438.238 340.963 438.937 341.324 439.66 341.63C440.058 341.85 440.518 341.928 440.966 341.851C441.414 341.774 441.822 341.547 442.124 341.207C442.425 340.867 442.602 340.434 442.625 339.981C442.648 339.527 442.516 339.079 442.25 338.71V338.71Z" fill="#F7B595"/>
<path d="M435.31 282.86L421.8 244.62C418.49 235.25 409.88 228.87 399.86 227.48C394.922 226.774 390.102 225.405 385.53 223.41C380.345 221.187 374.761 220.044 369.12 220.05H349.66C345.365 220.043 341.094 220.7 337 222C332.543 223.335 327.922 224.039 323.27 224.09C320.93 224.156 318.629 224.704 316.51 225.7C314.392 226.696 312.503 228.119 310.96 229.88L278 267.42C277.748 267.704 277.555 268.034 277.431 268.393C277.308 268.751 277.257 269.131 277.281 269.509C277.305 269.888 277.404 270.258 277.572 270.598C277.74 270.938 277.974 271.241 278.26 271.49L299.5 290.13C300.075 290.634 300.826 290.889 301.589 290.84C302.351 290.792 303.064 290.443 303.57 289.87L308.02 284.81C318.54 311.41 317.41 345.25 307.02 372.25C346.41 401.55 385.7 398.87 410.63 375.56C403.81 350.07 402.76 314.36 410.72 289.2L434.43 284.34C434.591 284.313 434.745 284.25 434.88 284.158C435.015 284.065 435.128 283.944 435.212 283.803C435.296 283.663 435.348 283.505 435.365 283.343C435.382 283.18 435.363 283.015 435.31 282.86V282.86Z" fill="#7ACE64"/>
<path d="M386.95 170.99C392.081 170.99 396.24 166.831 396.24 161.7C396.24 156.569 392.081 152.41 386.95 152.41C381.819 152.41 377.66 156.569 377.66 161.7C377.66 166.831 381.819 170.99 386.95 170.99Z" fill="#E89C87"/>
<path d="M329.58 170.99C334.711 170.99 338.87 166.831 338.87 161.7C338.87 156.569 334.711 152.41 329.58 152.41C324.449 152.41 320.29 156.569 320.29 161.7C320.29 166.831 324.449 170.99 329.58 170.99Z" fill="#E89C87"/>
<path d="M372.781 213.14H343.761V190.55H372.781V213.14Z" fill="#E89C87"/>
<path d="M343.75 190.54H348.82L347.3 213.13H343.75V190.54Z" fill="#F8BFA3"/>
<path d="M323.13 161.78C323.13 181.187 338.861 196.92 358.265 196.92C377.67 196.92 393.4 181.187 393.4 161.78V149.71C393.4 130.303 377.67 114.57 358.265 114.57C338.861 114.57 323.13 130.303 323.13 149.71V161.78Z" fill="#5C463D"/>
<path d="M358.64 174.43C363.368 174.43 367.2 170.598 367.2 165.87C367.2 161.142 363.368 157.31 358.64 157.31C353.913 157.31 350.08 161.142 350.08 165.87C350.08 170.598 353.913 174.43 358.64 174.43Z" fill="#7ACE64"/>
<path d="M338.391 221.41C338.033 221.406 337.682 221.316 337.367 221.148C337.051 220.981 336.78 220.74 336.577 220.447C336.373 220.153 336.243 219.815 336.197 219.461C336.15 219.106 336.189 218.746 336.311 218.41L337.501 215.07C337.859 214.173 338.488 213.41 339.299 212.887C340.111 212.364 341.066 212.106 342.031 212.15L373.491 212.53C374.5 212.507 375.49 212.814 376.309 213.404C377.128 213.994 377.733 214.835 378.031 215.8L378.901 219.18C378.987 219.514 378.995 219.863 378.924 220.2C378.854 220.537 378.706 220.853 378.493 221.124C378.28 221.395 378.008 221.613 377.697 221.762C377.386 221.91 377.045 221.985 376.701 221.98L338.391 221.41Z" fill="#1DBD6F"/>
<path d="M349.12 262.11C352.41 270.21 361.81 270.38 366.6 262.11C371.87 252.17 364.6 166.83 364.6 166.83C364.1 162.46 361.6 159.26 358.6 159.26C355.73 159.26 353.26 162.31 352.69 166.55C352.72 166.55 343.89 252.51 349.12 262.11Z" fill="#46352E"/>
<g opacity="0.5">
<path opacity="0.5" d="M303.48 269.7L293.34 281.26C293.115 281.516 292.943 281.814 292.833 282.136C292.724 282.459 292.679 282.8 292.701 283.14C292.723 283.48 292.812 283.812 292.963 284.118C293.114 284.423 293.324 284.696 293.58 284.92L299.73 290.32C299.986 290.546 300.283 290.719 300.605 290.829C300.927 290.94 301.268 290.986 301.608 290.964C301.948 290.943 302.28 290.855 302.586 290.705C302.892 290.555 303.165 290.346 303.39 290.09L307.39 285.54C307.809 285.069 308.041 284.46 308.04 283.83V271.41C308.041 270.881 307.879 270.363 307.578 269.928C307.276 269.493 306.849 269.16 306.353 268.974C305.857 268.788 305.317 268.758 304.803 268.888C304.29 269.017 303.828 269.301 303.48 269.7Z" fill="#1DBD6F"/>
</g>
<path opacity="0.5" d="M410.5 290L405.5 290.79L403.75 286.18C403.187 286.573 402.731 287.099 402.422 287.712C402.113 288.324 401.961 289.004 401.98 289.69C395.62 315.11 398.66 355.57 404.98 380.26L413.51 373.72C406.89 348.66 402.87 314.82 410.5 290Z" fill="#1DBD6F"/>
<path d="M434.87 284L434.42 289.06C434.358 289.75 434.075 290.401 433.614 290.918C433.153 291.434 432.538 291.789 431.86 291.93L410.72 296.38C410.012 296.531 409.273 296.438 408.623 296.117C407.973 295.796 407.451 295.265 407.14 294.61L405 290.19L434.87 284ZM301.06 290.89L296.76 293.57C296.171 293.936 295.481 294.104 294.789 294.048C294.098 293.992 293.443 293.716 292.92 293.26L276.64 279.07C276.092 278.595 275.72 277.948 275.584 277.235C275.448 276.522 275.556 275.784 275.89 275.14L278.16 270.78L301.06 290.89Z" fill="#1DBD6F"/>
</g>
<defs>
<clipPath id="clip0_230_130">
<rect width="661.44" height="404.11" fill="white"/>
</clipPath>
</defs>
</svg>
